<svg xmlns="http://www.w3.org/2000/svg" viewBox="0 0 520 620" width="520" height="620" role="img" aria-label="OCTO CRM APM logo">
  <defs>
    <linearGradient id="glow" x1="0%" y1="0%" x2="100%" y2="100%">
      <stop offset="0%" stop-color="#8cf0f6"/>
      <stop offset="100%" stop-color="#63cddb"/>
    </linearGradient>
    <style>
      .stroke { fill: none; stroke: url(#glow); stroke-width: 12; stroke-linecap: round; stroke-linejoin: round; }
      .fill { fill: url(#glow); }
      .eye { fill: #08111d; }
      .text { fill: url(#glow); font-family: 'Space Grotesk', 'Segoe UI', sans-serif; font-weight: 700; letter-spacing: 12px; }
    </style>
  </defs>

  <path class="stroke" d="M260 34 405 103v145c0 106-68 172-145 211-77-39-145-105-145-211V103z"/>

  <g transform="translate(260 172)">
    <path class="stroke" d="M-71 55c-22-18-28-52-16-78 10-22 32-36 57-36 6-25 29-42 55-42 16 0 31 7 42 18 11-11 26-18 42-18 26 0 49 17 55 42 25 0 47 14 57 36 12 26 6 60-16 78"/>
    <path class="stroke" d="M0-20v91"/>
    <path class="stroke" d="M-44 18h44"/>
    <path class="stroke" d="M44 18H0"/>
    <path class="stroke" d="M-44 18-70 45"/>
    <path class="stroke" d="M44 18 70 45"/>
    <path class="stroke" d="M0-20-28-54"/>
    <path class="stroke" d="M0-20 28-54"/>
    <circle class="fill" cx="-44" cy="18" r="9"/>
    <circle class="fill" cx="44" cy="18" r="9"/>
    <circle class="fill" cx="-70" cy="45" r="9"/>
    <circle class="fill" cx="70" cy="45" r="9"/>
    <circle class="fill" cx="-28" cy="-54" r="9"/>
    <circle class="fill" cx="28" cy="-54" r="9"/>
    <circle class="fill" cx="0" cy="-20" r="10"/>
  </g>

  <ellipse class="fill" cx="260" cy="332" rx="102" ry="86"/>
  <path class="eye" d="m197 327 23-22c16-9 37-8 52 2-9 17-29 33-53 33-10 0-18-4-22-13z"/>
  <path class="eye" d="m323 327-23-22c-16-9-37-8-52 2 9 17 29 33 53 33 10 0 18-4 22-13z"/>

  <g class="fill">
    <path d="M170 386c-60 24-109 74-127 128-11 34-7 66 18 77 31 13 69-10 69-44 0-14-6-26-16-34 11-34 35-69 73-97z"/>
    <path d="M187 398c-41 35-69 82-74 126-3 28 9 54 32 59 25 6 48-16 48-44 0-13-6-26-15-36 3-32 14-69 36-105z"/>
    <path d="M217 404c-25 41-36 90-31 132 4 29 18 54 40 54 22 0 35-26 31-55-3-23-13-46-26-63 1-24 5-47 18-68z"/>
    <path d="M303 404c25 41 36 90 31 132-4 29-18 54-40 54-22 0-35-26-31-55 3-23 13-46 26-63-1-24-5-47-18-68z"/>
    <path d="M333 398c41 35 69 82 74 126 3 28-9 54-32 59-25 6-48-16-48-44 0-13 6-26 15-36-3-32-14-69-36-105z"/>
    <path d="M350 386c60 24 109 74 127 128 11 34 7 66-18 77-31 13-69-10-69-44 0-14 6-26 16-34-11-34-35-69-73-97z"/>
  </g>

  <g opacity=".35" fill="#06111d">
    <ellipse cx="106" cy="490" rx="10" ry="6"/>
    <ellipse cx="128" cy="520" rx="10" ry="6"/>
    <ellipse cx="165" cy="475" rx="9" ry="5.5"/>
    <ellipse cx="202" cy="551" rx="9" ry="5.5"/>
    <ellipse cx="319" cy="551" rx="9" ry="5.5"/>
    <ellipse cx="356" cy="475" rx="9" ry="5.5"/>
    <ellipse cx="392" cy="520" rx="10" ry="6"/>
    <ellipse cx="414" cy="490" rx="10" ry="6"/>
  </g>

  <text x="260" y="585" text-anchor="middle" class="text" font-size="94">OCTO</text>
</svg>
