<svg xmlns="http://www.w3.org/2000/svg" viewBox="96 20 328 400" width="96" height="96" role="img" aria-label="OCTO icon">
  <defs>
    <linearGradient id="octoIcon" x1="0%" y1="0%" x2="100%" y2="100%">
      <stop offset="0%" stop-color="#8cf0f6"/>
      <stop offset="100%" stop-color="#63cddb"/>
    </linearGradient>
    <style>
      .stroke { fill: none; stroke: url(#octoIcon); stroke-width: 10; stroke-linecap: round; stroke-linejoin: round; }
      .fill { fill: url(#octoIcon); }
      .eye { fill: #08111d; }
    </style>
  </defs>
  <path class="stroke" d="M260 34 405 103v145c0 96-59 151-145 195-86-44-145-99-145-195V103z"/>
  <g transform="translate(260 170)">
    <path class="stroke" d="M-71 55c-22-18-28-52-16-78 10-22 32-36 57-36 6-25 29-42 55-42 16 0 31 7 42 18 11-11 26-18 42-18 26 0 49 17 55 42 25 0 47 14 57 36 12 26 6 60-16 78"/>
    <path class="stroke" d="M0-20v91M-44 18h44M44 18H0"/>
  </g>
  <ellipse class="fill" cx="260" cy="334" rx="102" ry="86"/>
  <path class="eye" d="m197 329 23-22c16-9 37-8 52 2-9 17-29 33-53 33-10 0-18-4-22-13z"/>
  <path class="eye" d="m323 329-23-22c-16-9-37-8-52 2 9 17 29 33 53 33 10 0 18-4 22-13z"/>
</svg>
